<?xml version="1.0" encoding="utf-8"?>
<!-- Generator: Adobe Illustrator 24.2.1, SVG Export Plug-In . SVG Version: 6.00 Build 0)  -->
<svg version="1.1" id="Layer_1" xmlns="http://www.w3.org/2000/svg" xmlns:xlink="http://www.w3.org/1999/xlink" x="0px" y="0px"
	 viewBox="0 0 24.2 36.5" style="enable-background:new 0 0 24.2 36.5;" xml:space="preserve">
<style type="text/css">
	.st0{fill:#5887DA;}
</style>
<g id="Layer_2_1_">
	<g id="Layer_1-2">
		<path class="st0" d="M12.1,0C5.4,0,0,5.4,0,12.1c0,0,0,0,0,0c0,5,6.7,17.2,10.1,23.2c0.6,1.1,2,1.5,3.1,0.9
			c0.4-0.2,0.7-0.5,0.9-0.9c3.4-6,10.1-18.2,10.1-23.2C24.3,5.4,18.8,0,12.1,0C12.1,0,12.1,0,12.1,0z M12.1,19.4
			c-4,0-7.3-3.2-7.3-7.3s3.2-7.3,7.3-7.3s7.3,3.2,7.3,7.3c0,0,0,0,0,0C19.4,16.1,16.1,19.4,12.1,19.4C12.1,19.4,12.1,19.4,12.1,19.4
			z"/>
	</g>
</g>
</svg>
