<svg xmlns="http://www.w3.org/2000/svg" viewBox="0 0 24.6 20.41"><defs><style>.cls-1{fill:#1e2743;}</style></defs><g id="Layer_2" data-name="Layer 2"><g id="Layer_1-2" data-name="Layer 1"><polygon class="cls-1" points="2 7.84 0 7.84 0 0 7.84 0 7.84 2 2 2 2 7.84"/><polygon class="cls-1" points="24.6 7.84 22.6 7.84 22.6 2 16.76 2 16.76 0 24.6 0 24.6 7.84"/><polygon class="cls-1" points="24.6 20.41 16.76 20.41 16.76 18.41 22.6 18.41 22.6 12.57 24.6 12.57 24.6 20.41"/><polygon class="cls-1" points="7.84 20.41 0 20.41 0 12.57 2 12.57 2 18.41 7.84 18.41 7.84 20.41"/><rect class="cls-1" x="3.3" y="-0.37" width="2" height="9.34" transform="translate(-1.78 4.3) rotate(-45)"/><rect class="cls-1" x="15.63" y="3.3" width="9.34" height="2" transform="translate(2.9 15.61) rotate(-45)"/><rect class="cls-1" x="19.3" y="11.44" width="2" height="9.34" transform="translate(-5.44 19.07) rotate(-45)"/><rect class="cls-1" x="-0.37" y="15.11" width="9.34" height="2" transform="translate(-10.13 7.76) rotate(-45)"/></g></g></svg>