<?xml version="1.0" encoding="utf-8"?>
<!-- Generator: Adobe Illustrator 24.2.1, SVG Export Plug-In . SVG Version: 6.00 Build 0)  -->
<svg version="1.1" id="Layer_1" xmlns="http://www.w3.org/2000/svg" xmlns:xlink="http://www.w3.org/1999/xlink" x="0px" y="0px"
	 viewBox="0 0 28.8 31.2" style="enable-background:new 0 0 28.8 31.2;" xml:space="preserve">
<style type="text/css">
	.st0{fill:#5887DA;}
</style>
<g id="Layer_2_1_">
	<g id="Layer_1-2">
		<path class="st0" d="M28.6,22.5c-0.3-1.1-0.8-2-1.6-2.8c-1.2-1.2-1.9-2.9-1.8-4.6V7c0-0.2,0.1-1.6-3.6-3.8c-1-0.6-1.8-0.9-2.3-1.1
			c0-1.1-0.9-2-2-2H4.1c-1.1,0-2,0.9-2,2v25.8H2c-1.1,0-2,0.9-2,2v1.3h21.5v-1.3c0-1.1-0.9-2-2-2h-0.1V14.7c0.2,0,0.4,0,0.5,0.1V23
			c-0.1,1.1,0.2,2.2,0.9,3c0.9,0.9,2.1,1.4,3.3,1.3c2.1,0,3.4-0.4,4.1-1.4C28.9,24.9,29,23.6,28.6,22.5z M5.3,5.9
			c0-0.8,0.7-1.5,1.5-1.5c0,0,0,0,0,0h7.7c0.8,0,1.5,0.7,1.5,1.5v0v2.3c0,0.8-0.7,1.5-1.5,1.5H6.9C6,9.8,5.3,9.1,5.3,8.2V5.9z
			 M26.6,24.7c-0.2,0.2-0.8,0.6-2.6,0.6c-0.6,0.1-1.3-0.2-1.8-0.6c-0.3-0.4-0.5-0.9-0.4-1.5v-8.5c0-0.5-0.2-1-0.6-1.4
			c-0.5-0.4-1.2-0.6-1.9-0.6V4.3L20.8,5c2.1,1,2.4,2,2.4,2.1v7.9c-0.1,2.2,0.7,4.4,2.3,5.9c0.6,0.5,1,1.2,1.2,1.9
			C26.9,23.8,26.9,24.4,26.6,24.7z"/>
	</g>
</g>
</svg>
