<svg xmlns="http://www.w3.org/2000/svg" viewBox="0 0 28.84 31.16"><defs><style>.cls-1{fill:#fff;}</style></defs><g id="Layer_2" data-name="Layer 2"><g id="Layer_1-2" data-name="Layer 1"><path class="cls-1" d="M28.64,22.46A5.94,5.94,0,0,0,27,19.65a5.81,5.81,0,0,1-1.78-4.58V7c0-.23.07-1.64-3.57-3.84-1-.58-1.76-.85-2.28-1.12a2,2,0,0,0-2-2H4.12a2,2,0,0,0-2,2V27.82H2a2,2,0,0,0-2,2v1.32H21.45V29.84a2,2,0,0,0-2-2h-.07V14.67a2,2,0,0,1,.52.08V23a4,4,0,0,0,.91,3,4.16,4.16,0,0,0,3.29,1.28c2.08,0,3.39-.43,4.13-1.35A4,4,0,0,0,28.64,22.46ZM5.32,5.91A1.53,1.53,0,0,1,6.86,4.38H14.6a1.53,1.53,0,0,1,1.53,1.53v2.3A1.54,1.54,0,0,1,14.6,9.75H6.86A1.54,1.54,0,0,1,5.32,8.21ZM26.64,24.66c-.18.22-.75.59-2.56.59a2.29,2.29,0,0,1-1.77-.59,2.13,2.13,0,0,1-.43-1.47V14.66a1.81,1.81,0,0,0-.62-1.39,3,3,0,0,0-1.91-.61V4.28L20.77,5C22.85,6,23.17,7,23.2,7.13v7.94A7.74,7.74,0,0,0,25.49,21a4.13,4.13,0,0,1,1.19,1.9C26.88,23.79,26.87,24.37,26.64,24.66Z"/></g></g></svg>