<?xml version="1.0" encoding="utf-8"?>
<svg class="icon" style="width: 1em; height: 1em;vertical-align: middle;fill: currentColor;overflow: hidden;" viewBox="0 0 47 47" version="1.1" xmlns="http://www.w3.org/2000/svg">
  <path d="M 23.5 0 C 10.521 0 0 10.521 0 23.5 C 0 36.479 10.521 47 23.5 47 C 36.479 47 47 36.479 47 23.5 C 47 10.521 36.479 0 23.5 0 Z" style="fill: rgb(205, 207, 102);"/>
  <path d="M 30.837 30.825 L 23.511 30.825 L 23.511 28.994 L 30.837 28.994 L 30.837 30.825 Z M 32.669 18.005 L 14.354 18.005 L 14.354 32.657 L 32.669 32.657 L 32.669 18.005 Z M 16.277 14.342 C 15.98 14.388 15.728 14.594 15.613 14.869 L 14.331 17.09 L 23.054 17.09 L 23.054 14.342 L 16.277 14.342 Z M 23.969 14.342 L 23.969 17.09 L 32.691 17.09 L 31.409 14.869 C 31.295 14.594 31.043 14.388 30.746 14.342 L 23.969 14.342 Z M 34.5 17.09 L 34.5 33.572 C 34.5 34.076 34.088 34.488 33.584 34.488 L 13.439 34.488 C 12.935 34.488 12.523 34.076 12.523 33.572 L 12.523 17.09 L 12.5 17.09 L 14.515 13.518 C 14.835 12.9 15.453 12.511 16.163 12.511 L 30.837 12.511 C 31.524 12.511 32.165 12.9 32.485 13.518 L 34.5 17.09 Z M 30.837 27.162 L 25.343 27.162 L 25.343 25.331 L 30.837 25.331 L 30.837 27.162 Z" style="fill: rgb(255, 255, 255);"/>
</svg>