<?xml version="1.0" encoding="utf-8"?>
<!-- Generator: Adobe Illustrator 24.2.1, SVG Export Plug-In . SVG Version: 6.00 Build 0)  -->
<svg version="1.1" id="Layer_1" xmlns="http://www.w3.org/2000/svg" xmlns:xlink="http://www.w3.org/1999/xlink" x="0px" y="0px"
	 viewBox="0 0 35.9 29.7" style="enable-background:new 0 0 35.9 29.7;" xml:space="preserve">
<style type="text/css">
	.st0{fill:#5887DA;}
</style>
<g id="Layer_2_1_">
	<g id="Layer_1-2">
		<path class="st0" d="M35.9,16.5c0-0.7-0.2-1.4-0.5-2c0-0.2-0.1-0.3-0.1-0.5l-3.1-7.7V6.2C31.1,3,29.5,0,25.6,0h-15
			C6.5,0,5.1,3.1,4,6.2L0.7,14C0.3,14.8,0,15.6,0,16.5v2.4c0,0.4,0,0.7,0.1,1.1C0,20.2,0,20.4,0,20.7v7.1c0,1,0.9,1.9,1.9,1.9h3.9
			c1,0,1.9-0.9,1.9-1.9v-3.6h20.6v3.6c0,1,0.9,1.9,1.9,1.9H34c1,0,1.9-0.9,1.9-1.9c0,0,0,0,0,0v-7.1c0-0.2,0-0.5-0.1-0.7
			c0.1-0.4,0.1-0.7,0.1-1.1L35.9,16.5L35.9,16.5z M6.3,7c1.2-3.5,2.2-4.6,4.3-4.6h15c2,0,3.1,1.2,4.3,4.6l2.3,4.6
			c-0.8-0.3-1.6-0.4-2.4-0.4H6.2c-0.7,0-1.5,0.1-2.2,0.4L6.3,7z M8.3,19.8H4.1c-0.7-0.1-1.3-0.7-1.2-1.5c0.1-0.7,0.6-1.2,1.2-1.2
			h4.2c0.7,0.1,1.3,0.7,1.2,1.5C9.5,19.2,8.9,19.8,8.3,19.8L8.3,19.8z M23,19.6h-9.7c-0.5,0-0.9-0.4-0.9-0.9c0-0.5,0.4-0.9,0.9-0.9
			c0,0,0,0,0,0H23c0.5,0,0.9,0.4,0.9,0.9C23.9,19.2,23.5,19.6,23,19.6z M31.7,19.8h-4.2c-0.7-0.1-1.3-0.7-1.2-1.5
			c0.1-0.7,0.6-1.2,1.2-1.2h4.2c0.7,0.1,1.3,0.7,1.2,1.5C32.9,19.3,32.3,19.8,31.7,19.8L31.7,19.8z"/>
	</g>
</g>
</svg>
