<svg xmlns="http://www.w3.org/2000/svg" viewBox="0 0 35.88 29.73"><defs><style>.cls-1{fill:#503dc5;}</style></defs><g id="Layer_2" data-name="Layer 2"><g id="Layer_1-2" data-name="Layer 1"><path class="cls-1" d="M35.88,16.51a4.64,4.64,0,0,0-.45-2c0-.16-.06-.32-.1-.47L32.21,6.32l0-.07C31.1,3,29.55,0,25.61,0h-15C6.54,0,5.11,3.08,4,6.23L.74,14A4.76,4.76,0,0,0,0,16.51v2.41A4.32,4.32,0,0,0,.13,20a1.91,1.91,0,0,0-.13.68v7.15a1.9,1.9,0,0,0,1.9,1.9H5.84a1.9,1.9,0,0,0,1.89-1.9V24.26H28.37v3.57a1.9,1.9,0,0,0,1.9,1.9H34a1.9,1.9,0,0,0,1.9-1.9V20.68a2.16,2.16,0,0,0-.12-.68,4.83,4.83,0,0,0,.12-1.08V16.51ZM6.31,7c1.24-3.5,2.24-4.57,4.26-4.57h15c2,0,3.12,1.19,4.26,4.55l2.27,4.61a7.07,7.07,0,0,0-2.42-.42H6.16A6.84,6.84,0,0,0,4,11.53Zm2,12.82H4.11a1.36,1.36,0,0,1,0-2.71H8.27a1.36,1.36,0,0,1,0,2.71ZM23,19.56H13.28a.86.86,0,1,1,0-1.72H23a.86.86,0,0,1,0,1.72Zm8.72.27H27.51a1.36,1.36,0,0,1,0-2.71h4.16a1.36,1.36,0,0,1,0,2.71Z"/></g></g></svg>