<?xml version="1.0" encoding="utf-8"?>
<!-- Generator: Adobe Illustrator 24.2.1, SVG Export Plug-In . SVG Version: 6.00 Build 0)  -->
<svg version="1.1" id="Layer_1" xmlns="http://www.w3.org/2000/svg" xmlns:xlink="http://www.w3.org/1999/xlink" x="0px" y="0px"
	 viewBox="0 0 47 47" style="enable-background:new 0 0 47 47;" xml:space="preserve">
<style type="text/css">
	.st0{fill:#5887DA;}
	.st1{fill:#FFFFFF;}
</style>
<g id="Layer_2_1_">
	<g id="Layer_1-2">
		<circle class="st0" cx="23.5" cy="23.5" r="23.5"/>
		<path class="st1" d="M39.1,23.6c0-0.6-0.1-1.2-0.4-1.7c0-0.1-0.1-0.3-0.1-0.4l-2.7-6.7v-0.1c-1-2.8-2.3-5.4-5.7-5.4H17.1
			c-3.5,0-4.8,2.7-5.7,5.4l-2.8,6.7c-0.4,0.7-0.6,1.4-0.6,2.2v2.1c0,0.3,0,0.6,0.1,1c-0.1,0.2-0.1,0.4-0.1,0.6v6.2
			c0,0.9,0.7,1.7,1.6,1.7c0,0,0,0,0,0H13c0.9,0,1.7-0.7,1.7-1.6c0,0,0,0,0,0v-3.1h18v3.1c0,0.9,0.7,1.7,1.6,1.7c0,0,0,0,0,0h3.2
			c0.9,0,1.7-0.7,1.7-1.6c0,0,0,0,0,0v-6.2c0-0.2,0-0.4-0.1-0.6c0.1-0.3,0.1-0.6,0.1-1L39.1,23.6L39.1,23.6z M13.4,15.3
			c1.1-3.1,2-4,3.7-4h13.1c1.8,0,2.7,1,3.7,4l2,4c-0.7-0.2-1.4-0.3-2.1-0.3H13.2c-0.6,0-1.3,0.1-1.9,0.3L13.4,15.3z M15.1,26.5h-3.6
			c-0.7,0-1.2-0.5-1.2-1.2s0.5-1.2,1.2-1.2h3.6c0.7,0,1.2,0.5,1.2,1.2S15.7,26.5,15.1,26.5L15.1,26.5z M27.9,26.3h-8.4
			c-0.4,0-0.7-0.4-0.7-0.8c0-0.3,0.3-0.6,0.7-0.7h8.4c0.4,0,0.8,0.2,0.8,0.7s-0.2,0.8-0.7,0.8C28,26.3,27.9,26.3,27.9,26.3z
			 M35.5,26.5h-3.6c-0.7,0-1.2-0.5-1.2-1.2c0-0.7,0.5-1.2,1.2-1.2h3.6c0.7,0,1.2,0.5,1.2,1.2S36.1,26.5,35.5,26.5z"/>
	</g>
</g>
</svg>
