<svg xmlns="http://www.w3.org/2000/svg" viewBox="0 0 46.99 46.99"><defs><style>.cls-1{fill:#503dc5;}.cls-2{fill:#fff;}</style></defs><g id="Layer_2" data-name="Layer 2"><g id="Layer_1-2" data-name="Layer 1"><circle class="cls-1" cx="23.49" cy="23.49" r="23.49"/><path class="cls-2" d="M39.13,23.6a4.1,4.1,0,0,0-.39-1.74c0-.14-.06-.27-.09-.41l-2.72-6.73,0-.06c-.95-2.83-2.3-5.45-5.73-5.45H17.07c-3.51,0-4.75,2.68-5.73,5.43L8.5,21.39a4.16,4.16,0,0,0-.64,2.21v2.09a4.26,4.26,0,0,0,.11.95,1.63,1.63,0,0,0-.11.59v6.23a1.65,1.65,0,0,0,1.65,1.66H13a1.65,1.65,0,0,0,1.65-1.66V30.35h18v3.11a1.65,1.65,0,0,0,1.65,1.66h3.24a1.65,1.65,0,0,0,1.65-1.66V27.23a1.63,1.63,0,0,0-.11-.59,4.26,4.26,0,0,0,.11-.95V23.6ZM13.36,15.31c1.08-3.05,2-4,3.71-4H30.18c1.75,0,2.72,1,3.71,4l2,4A6.08,6.08,0,0,0,33.76,19H13.23a5.93,5.93,0,0,0-1.91.3Zm1.7,11.18H11.44a1.18,1.18,0,0,1,0-2.36h3.62a1.18,1.18,0,0,1,0,2.36Zm12.8-.24H19.43a.75.75,0,0,1,0-1.49h8.43a.75.75,0,1,1,0,1.49Zm7.6.24H31.83a1.18,1.18,0,0,1,0-2.36h3.63a1.18,1.18,0,0,1,0,2.36Z"/></g></g></svg>