<svg xmlns="http://www.w3.org/2000/svg" viewBox="0 0 24 24"><defs><style>.cls-1{fill:#503dc5;}.cls-2{fill:#fff;}</style></defs><g id="Layer_2" data-name="Layer 2"><g id="Layer_1-2" data-name="Layer 1"><g id="Layer_2-2" data-name="Layer 2"><g id="Layer_1-2-2" data-name="Layer 1-2"><g id="Group_54" data-name="Group 54"><g id="Group_44" data-name="Group 44"><g id="Rectangle_134" data-name="Rectangle 134"><path id="Rectangle_135" data-name="Rectangle 135" class="cls-1" d="M12,0h0A12,12,0,0,1,24,12h0A12,12,0,0,1,12,24h0A12,12,0,0,1,0,12H0A12,12,0,0,1,12,0Z"/></g></g><g id="Group_53" data-name="Group 53"><path id="Path_1949" data-name="Path 1949" class="cls-2" d="M5.37,13.83a.34.34,0,0,1,.28,0,6.13,6.13,0,0,0,3.29.6A6.43,6.43,0,0,0,10.87,14,6.25,6.25,0,0,0,14.6,8.68a6,6,0,0,0-.28-2.34A6.06,6.06,0,0,0,14,5.5a.25.25,0,0,1,.09-.36h.34l.41.23a6.67,6.67,0,0,1,1.65,1.39,6.88,6.88,0,0,1,1.37,2.5,8.36,8.36,0,0,1,.24,1.23,1.41,1.41,0,0,0,0,.29v.82h0a3.47,3.47,0,0,1-.06.64A6.92,6.92,0,0,1,16.2,15.9a5.86,5.86,0,0,1-.69.62,7.17,7.17,0,0,1-2.3,1.18,5.64,5.64,0,0,1-1.63.24h-1a6.89,6.89,0,0,1-1.1-.21,6.75,6.75,0,0,1-3.27-2,6.51,6.51,0,0,1-.79-1.1,2.16,2.16,0,0,1-.24-.48V14A.35.35,0,0,1,5.37,13.83Z"/></g></g></g></g></g></g></svg>