<svg xmlns="http://www.w3.org/2000/svg" viewBox="0 0 24 24"><defs><style>.cls-1{fill:#5887da;}.cls-2{fill:#fff;}</style></defs><g id="Layer_2" data-name="Layer 2"><g id="Layer_1-2" data-name="Layer 1"><g id="Rectangle_134" data-name="Rectangle 134"><rect id="Rectangle_135" data-name="Rectangle 135" class="cls-1" width="24" height="24" rx="12"/></g><path id="Path_1949" data-name="Path 1949" class="cls-2" d="M5.37,13.83a.31.31,0,0,1,.28,0,6.13,6.13,0,0,0,3.29.6A6.37,6.37,0,0,0,10.87,14,6.25,6.25,0,0,0,14.6,8.68a6,6,0,0,0-.28-2.34A6.1,6.1,0,0,0,14,5.5a.26.26,0,0,1,.09-.36l.11,0h.06l.17,0,.41.23a6.67,6.67,0,0,1,1.65,1.39,6.88,6.88,0,0,1,1.37,2.5,7.43,7.43,0,0,1,.24,1.23,2.64,2.64,0,0,0,0,.29v.82a0,0,0,0,0,0,0,3.47,3.47,0,0,1-.06.64,6.91,6.91,0,0,1-1.84,3.66,5.86,5.86,0,0,1-.69.62,7,7,0,0,1-2.3,1.18,5.9,5.9,0,0,1-1.63.24h-.51a3.38,3.38,0,0,1-.45,0,6.89,6.89,0,0,1-1.1-.21,6.73,6.73,0,0,1-3.27-2,6.51,6.51,0,0,1-.79-1.1,2.16,2.16,0,0,1-.24-.48V14A.34.34,0,0,1,5.37,13.83Z"/></g></g></svg>